<svg id="Layer_1" enable-background="new 0 0 512 512" height="512" viewBox="0 0 512 512" width="512"
    xmlns="http://www.w3.org/2000/svg">
    <g>
        <path
            d="m507.606 245.394-241-241c-5.857-5.858-15.355-5.858-21.213 0l-241 241c-4.29 4.29-5.573 10.742-3.252 16.347 2.323 5.604 7.792 9.259 13.859 9.259h49.266v226c0 8.284 6.716 15 15 15h353.466c8.284 0 15-6.716 15-15v-226h49.268c6.067 0 11.536-3.655 13.858-9.26 2.321-5.605 1.038-12.056-3.252-16.346zm-74.872-4.394c-8.284 0-15 6.716-15 15v226h-323.467v-226c0-8.284-6.716-15-15-15h-28.054l204.787-204.786 204.787 204.786z" />
        <path
            d="m160.667 320.266v74.12l-27.74 27.74c-5.858 5.858-5.858 15.355 0 21.213 5.857 5.858 15.355 5.858 21.213 0l27.74-27.74h74.12c52.566 0 95.333-42.766 95.333-95.333v-80.333c0-8.284-6.716-15-15-15h-80.333c-52.566 0-95.333 42.766-95.333 95.333zm160.666 0c0 36.082-29.251 65.333-65.333 65.333l-44.12.001 54.727-54.727c5.858-5.858 5.858-15.355 0-21.213-5.857-5.858-15.355-5.858-21.213 0l-54.727 54.726v-44.12c0-36.082 29.251-65.333 65.333-65.333h65.333z" />
    </g>
</svg>