<svg width="459" height="459" viewBox="0 0 459 459" fill="none" xmlns="http://www.w3.org/2000/svg">
    <g clip-path="url(#clip0)">
        <path
            d="M184.462 3C180.206 4.27669 175.951 5.3406 171.696 6.61729C167.654 7.6812 163.611 8.74511 159.356 9.80902C151.058 30.2361 140.421 63.6429 139.357 106.199C138.506 150.245 148.505 185.354 156.165 206.207C141.91 195.78 120.421 177.481 102.337 148.543C80.8481 113.859 74.4654 80.6654 72.3378 62.1534C66.5933 67.8985 60.636 73.8564 54.8916 79.6015C59.3595 94.2835 64.0402 108.965 68.5081 123.647C55.9554 120.456 43.1898 117.051 30.6371 113.859C28.084 120.243 25.3181 126.626 22.765 133.01C42.9771 139.18 63.4019 145.564 83.614 151.735C91.6988 167.693 105.954 190.886 129.783 212.59C146.591 227.911 163.186 238.124 176.377 244.933C186.376 263.445 205.525 304.725 203.61 360.048C202.121 403.881 188.078 437.075 178.93 455.162C185.525 456.226 192.121 457.289 198.716 458.141C208.503 438.565 224.247 399.413 223.822 348.132C223.396 302.597 210.205 267.701 201.27 248.338C194.461 238.55 187.227 226.634 180.632 212.59C171.696 193.865 166.377 176.417 162.973 161.948C180.632 151.309 207.865 132.159 232.332 100.029C261.267 61.9406 272.118 24.2782 276.586 3C269.991 3 263.182 3 256.587 3C252.97 20.6609 244.885 48.5353 225.524 77.8992C202.759 112.157 175.313 131.733 159.356 141.521C156.803 124.924 154.675 99.3902 160.42 69.1752C165.739 39.8113 176.377 17.2564 184.462 3Z"
            fill="#364037" />
        <path
            d="M437.857 131.52C435.304 125.775 432.751 120.03 430.198 114.285C416.794 116.838 400.412 121.094 382.753 128.541C363.604 136.414 348.073 145.564 336.158 153.862C341.477 138.968 346.796 118.753 349.137 94.709C351.477 69.8135 349.775 48.5353 347.435 32.5767C340.201 28.7466 332.967 24.9165 325.733 20.8737C330.201 40.8752 337.009 82.5804 322.755 131.52C311.266 170.885 291.479 198.121 278.714 213.016C277.224 204.504 272.969 185.354 257.438 167.055C242.119 148.756 224.035 141.095 215.95 138.329C213.184 143.862 210.631 149.394 207.865 154.926C215.524 157.692 232.332 165.14 245.31 182.801C267.012 212.377 259.14 246.423 257.863 251.529C248.502 273.02 233.183 316.215 238.077 371.325C241.481 410.052 253.395 440.054 262.757 458.779C269.139 457.289 275.522 455.8 281.905 454.31C272.544 436.011 254.885 395.157 257.225 341.11C259.353 290.894 277.863 254.083 288.075 236.422C298.926 218.761 321.053 187.907 359.775 163.012C390.199 143.436 418.921 135.138 437.857 131.52Z"
            fill="#3A433B" />
        <path
            d="M400.837 383.667L418.496 363.453C418.071 361.112 411.901 327.918 380.2 313.874C349.775 300.469 322.542 316.215 319.989 317.917C325.095 307.704 341.69 276.85 379.136 257.7C414.028 240.039 446.367 243.018 458.069 244.507C458.707 237.911 459.346 231.102 460.197 224.506C401.901 215.995 343.818 241.954 311.478 290.468C280.628 337.068 278.075 397.285 304.883 446.65C310.84 445.161 316.797 443.671 322.755 442.182C301.479 399.413 304.457 357.282 326.584 338.557C327.435 337.919 346.584 322.173 368.072 328.982C387.433 335.153 401.475 357.069 400.837 383.667Z"
            fill="#3B423A" />
        <path
            d="M59.1469 383.667L41.4879 363.453C41.9134 361.112 48.0834 327.918 79.7845 313.874C110.209 300.469 137.442 316.215 139.995 317.917C135.102 307.704 118.294 276.85 80.8483 257.7C44.6793 239.401 11.2762 243.231 0 245.146C0 238.337 0 231.528 0 224.719C58.2959 216.207 116.379 242.167 148.718 290.681C179.568 337.28 182.121 397.498 155.314 446.863C149.357 445.374 143.399 443.884 137.442 442.395C158.718 399.626 155.739 357.495 133.612 338.77C132.761 338.132 113.613 322.386 92.1245 329.195C72.5507 335.153 58.7214 357.069 59.1469 383.667Z"
            fill="#3B423A" />
        <path
            d="M8.08472 176.843C13.8292 188.759 25.3182 196.844 38.0837 197.695C53.4023 198.759 63.8275 188.971 65.3168 187.269C63.8275 183.652 59.7851 174.928 50.6364 170.034C37.8709 163.225 20.8502 165.778 8.08472 176.843Z"
            fill="#39423A" />
        <path
            d="M85.1033 205.356C83.8268 218.548 89.3585 231.315 99.9964 238.762C112.549 247.486 126.591 244.507 128.719 244.082C129.357 240.252 130.421 230.677 125.102 221.527C117.868 208.973 101.911 202.377 85.1033 205.356Z"
            fill="#39423A" />
        <path
            d="M9.99951 299.831C20.4247 308.129 34.254 310.257 46.1685 305.15C60.4233 299.192 65.3168 285.787 65.955 283.659C62.9764 281.106 55.5298 275.148 45.1047 274.723C30.8499 274.297 16.8078 284.085 9.99951 299.831Z"
            fill="#39423A" />
        <path
            d="M114.677 62.1533C103.613 69.3879 97.2307 81.942 98.0817 94.709C99.1455 110.029 110.209 118.966 112.124 120.456C115.528 118.541 123.613 113.434 127.23 103.433C132.336 89.815 127.442 73.4308 114.677 62.1533Z"
            fill="#39423A" />
        <path
            d="M213.61 15.7668C200.844 19.8097 191.483 30.0232 188.717 42.5774C185.526 57.6849 193.823 69.1751 195.312 71.0902C199.142 70.239 208.291 67.2601 214.461 58.9616C223.184 47.2586 222.971 30.0232 213.61 15.7668Z"
            fill="#39423A" />
        <path
            d="M296.798 33.0022C285.735 40.4496 279.565 53.0037 280.841 65.7706C282.118 81.0909 293.394 89.815 295.309 91.0917C298.713 89.1766 306.585 83.8571 310.202 73.8563C314.883 60.4511 309.776 44.0669 296.798 33.0022Z"
            fill="#39423A" />
        <path
            d="M274.884 112.37C265.735 121.945 262.331 135.563 266.161 147.692C270.629 162.374 283.607 168.544 285.522 169.395C288.501 166.842 295.096 159.82 296.373 149.394C298.5 135.35 289.777 120.456 274.884 112.37Z"
            fill="#39423A" />
        <path
            d="M214.886 198.121C208.291 209.611 208.291 223.655 214.886 234.719C222.758 247.912 236.8 250.891 238.928 251.316C241.055 248.125 245.949 239.826 244.672 229.4C243.183 214.931 231.269 202.589 214.886 198.121Z"
            fill="#39423A" />
        <path
            d="M389.986 64.4939C377.221 68.324 367.647 78.5375 364.881 90.8789C361.477 105.986 369.774 117.477 371.051 119.392C374.881 118.541 384.029 115.774 390.412 107.476C399.135 96.1984 398.922 78.9631 389.986 64.4939Z"
            fill="#39423A" />
        <path
            d="M394.667 186.631C403.816 196.206 417.22 200.249 429.56 197.27C444.453 193.44 451.261 180.886 452.325 178.971C449.772 175.992 443.389 168.97 432.964 167.055C418.922 164.289 403.603 171.949 394.667 186.631Z"
            fill="#39423A" />
        <path
            d="M358.285 205.568C345.307 202.589 331.903 206.42 323.18 215.782C312.755 227.059 313.819 241.316 314.032 243.656C317.861 244.72 327.01 247.061 336.797 243.018C350.201 237.486 358.711 222.591 358.285 205.568Z"
            fill="#39423A" />
        <path
            d="M394.88 281.532C398.497 294.298 408.496 304.086 420.836 307.065C435.73 310.683 447.644 302.597 449.559 301.32C448.708 297.49 446.155 288.341 437.857 281.744C426.794 273.02 409.56 272.807 394.88 281.532Z"
            fill="#39423A" />
    </g>
    <defs>
        <clipPath id="clip0">
            <rect width="459" height="459" fill="white" />
        </clipPath>
    </defs>
</svg>
