<svg id="_x31__x2C_5" enable-background="new 0 0 24 24" height="512" viewBox="0 0 24 24" width="512"
    xmlns="http://www.w3.org/2000/svg">
    <path
        d="m10 18.5c-.414 0-.75-.336-.75-.75v-6c0-.414.336-.75.75-.75s.75.336.75.75v6c0 .414-.336.75-.75.75z" />
    <path
        d="m11.5 12h-1.5c-.414 0-.75-.336-.75-.75v-.5c0-2.068 1.682-3.75 3.75-3.75h1.5c.414 0 .75.336.75.75v.5c0 2.068-1.682 3.75-3.75 3.75zm-.736-1.5h.736c1.156 0 2.111-.876 2.236-2h-.736c-1.156 0-2.111.876-2.236 2z" />
    <path
        d="m9.75 13h-1.5c-2.619 0-4.75-2.131-4.75-4.75v-.5c0-.414.336-.75.75-.75h1.5c2.619 0 4.75 2.131 4.75 4.75v.5c0 .414-.336.75-.75.75zm-4.741-4.5c.128 1.676 1.533 3 3.241 3h.741c-.128-1.676-1.533-3-3.241-3z" />
    <path
        d="m9.5 19c-5.238 0-9.5-4.262-9.5-9.5s4.262-9.5 9.5-9.5 9.5 4.262 9.5 9.5-4.262 9.5-9.5 9.5zm0-17.5c-4.411 0-8 3.589-8 8s3.589 8 8 8 8-3.589 8-8-3.589-8-8-8z" />
    <path
        d="m23.25 24c-.192 0-.384-.073-.53-.22l-7.31-7.31c-.293-.293-.293-.768 0-1.061s.768-.293 1.061 0l7.31 7.31c.293.293.293.768 0 1.061-.147.147-.339.22-.531.22z" />
</svg>